<svg width="1068" height="112" viewBox="0 0 1068 112" fill="none" xmlns="http://www.w3.org/2000/svg">
<path d="M73.1185 69.88L70.9425 91H0.2865V88.952C4.46783 87.5013 8.0945 86.6053 11.1665 86.264V6.13599C7.92383 5.624 4.29717 4.728 0.2865 3.448V1.39999H71.0705V22.776H67.2305C66.3772 21.4107 65.4385 18.9787 64.4145 15.48C63.4758 11.896 62.9212 9.16533 62.7505 7.28799H28.5745V43.896H52.2545C52.4252 42.4453 52.7238 40.6533 53.1505 38.52C53.6625 36.3867 54.2172 34.552 54.8145 33.016H57.6305V60.664H54.8145C54.2172 59.0427 53.6625 57.208 53.1505 55.16C52.7238 53.0267 52.4252 51.2347 52.2545 49.784H28.5745V85.368H63.3905C63.5612 83.32 64.3292 80.5893 65.6945 77.176C67.0598 73.7627 68.2545 71.3307 69.2785 69.88H73.1185ZM155.494 86.52C159.76 87.2027 163.088 88.056 165.478 89.08V91H129.382V89.08C133.222 87.7147 136.294 86.8187 138.598 86.392V45.048C138.598 36.2587 134.63 31.864 126.694 31.864C123.878 31.864 120.848 32.632 117.606 34.168C114.448 35.6187 111.504 37.9227 108.774 41.08V86.52C112.272 87.1173 115.643 87.9707 118.886 89.08V91H81.7655V89.08C85.3495 87.7147 88.7202 86.8187 91.8775 86.392V32.248C88.3788 31.48 85.4348 30.6693 83.0455 29.816V28.536L108.774 25.976V35.192C111.76 32.4613 115.302 30.2853 119.398 28.664C123.494 26.9573 127.888 26.104 132.582 26.104C139.408 26.104 144.912 27.7253 149.094 30.968C153.36 34.1253 155.494 38.5627 155.494 44.28V86.52ZM216.703 89.976C212.18 91.512 206.932 92.28 200.958 92.28C194.303 92.28 189.012 90.8293 185.087 87.928C181.161 84.9413 179.199 80.12 179.199 73.464V33.016H168.959V27.256H179.199V23.032C183.977 21.496 186.836 17.1867 187.775 10.104H196.095V27.256H214.783V33.016H196.095V73.464C196.095 78.328 197.076 81.6987 199.039 83.576C201.001 85.368 203.775 86.264 207.359 86.264C209.919 86.264 212.692 85.7947 215.679 84.856L216.703 89.976ZM288.802 60.024H240.29C240.46 67.704 242.38 74.104 246.05 79.224C249.804 84.344 255.266 86.904 262.434 86.904C265.932 86.904 269.644 86.3067 273.57 85.112C277.58 83.9173 281.079 82.2533 284.066 80.12L285.729 84.216C282.999 86.52 279.202 88.44 274.338 89.976C269.559 91.512 264.354 92.28 258.722 92.28C251.468 92.28 245.154 90.9147 239.778 88.184C234.487 85.4533 230.391 81.6133 227.49 76.664C224.674 71.6293 223.266 65.8267 223.266 59.256C223.266 48.6747 226.295 40.5253 232.354 34.808C238.498 29.0053 247.031 26.104 257.954 26.104C264.866 26.104 270.626 27.512 275.234 30.328C279.842 33.0587 283.255 36.728 285.474 41.336C287.692 45.8587 288.802 50.936 288.802 56.568V60.024ZM274.082 54.392C274.082 50.9787 273.57 47.5653 272.546 44.152C271.522 40.6533 269.815 37.752 267.426 35.448C265.036 33.0587 261.922 31.864 258.082 31.864C252.791 31.864 248.695 33.9973 245.794 38.264C242.892 42.4453 241.143 47.8213 240.546 54.392H274.082ZM295.123 88.952C297.512 87.928 300.883 87.0747 305.235 86.392V32.248C301.48 31.3947 298.579 30.584 296.531 29.816V28.664L320.211 25.976L321.619 37.752H322.131C323.667 34.168 325.971 31.352 329.043 29.304C332.115 27.1707 335.4 26.104 338.899 26.104C341.459 26.104 343.72 26.36 345.683 26.872C347.645 27.2987 349.565 28.1093 351.443 29.304L348.243 37.368C345.853 35.7467 343.336 34.936 340.691 34.936C336.936 34.936 333.437 36.1733 330.194 38.648C326.952 41.0373 324.264 44.1947 322.131 48.12V86.52C325.629 87.1173 328.957 87.9707 332.115 89.08V91H295.123V88.952ZM435.328 89.976C430.805 91.512 425.557 92.28 419.583 92.28C412.928 92.28 407.637 90.8293 403.712 87.928C399.786 84.9413 397.824 80.12 397.824 73.464V33.016H387.584V27.256H397.824V23.032C402.602 21.496 405.461 17.1867 406.4 10.104H414.72V27.256H433.408V33.016H414.72V73.464C414.72 78.328 415.701 81.6987 417.664 83.576C419.626 85.368 422.4 86.264 425.984 86.264C428.544 86.264 431.317 85.7947 434.304 84.856L435.328 89.976ZM515.491 86.52C518.989 87.1173 522.403 87.9707 525.731 89.08V91H489.379V89.08C493.219 87.7147 496.333 86.8187 498.723 86.392V45.048C498.723 36.2587 494.755 31.864 486.819 31.864C484.003 31.864 480.973 32.6747 477.731 34.296C474.573 35.832 471.587 38.1787 468.771 41.336V86.52C472.013 87.032 475.128 87.8853 478.115 89.08V91H441.891V89.08C446.243 87.544 449.613 86.648 452.003 86.392V7.032C448.504 6.264 445.56 5.45333 443.171 4.6V3.31999L468.771 0.759995V35.448C471.672 32.632 475.171 30.3707 479.267 28.664C483.448 26.9573 487.928 26.104 492.707 26.104C499.533 26.104 505.037 27.7253 509.219 30.968C513.4 34.1253 515.491 38.5627 515.491 44.28V86.52ZM597.177 60.024H548.665C548.835 67.704 550.755 74.104 554.425 79.224C558.179 84.344 563.641 86.904 570.809 86.904C574.307 86.904 578.019 86.3067 581.945 85.112C585.955 83.9173 589.454 82.2533 592.441 80.12L594.104 84.216C591.374 86.52 587.577 88.44 582.713 89.976C577.934 91.512 572.729 92.28 567.097 92.28C559.843 92.28 553.529 90.9147 548.153 88.184C542.862 85.4533 538.766 81.6133 535.865 76.664C533.049 71.6293 531.641 65.8267 531.641 59.256C531.641 48.6747 534.67 40.5253 540.729 34.808C546.873 29.0053 555.406 26.104 566.329 26.104C573.241 26.104 579.001 27.512 583.609 30.328C588.217 33.0587 591.63 36.728 593.849 41.336C596.067 45.8587 597.177 50.936 597.177 56.568V60.024ZM582.457 54.392C582.457 50.9787 581.945 47.5653 580.921 44.152C579.897 40.6533 578.19 37.752 575.801 35.448C573.411 33.0587 570.297 31.864 566.457 31.864C561.166 31.864 557.07 33.9973 554.169 38.264C551.267 42.4453 549.518 47.8213 548.921 54.392H582.457ZM638.661 88.824C643.355 87.3733 646.726 86.52 648.774 86.264V6.13599C645.36 5.45333 641.99 4.55733 638.661 3.448V1.39999H679.75C693.488 1.39999 703.515 5.19733 709.83 12.792C716.23 20.3867 719.43 31.5227 719.43 46.2C719.43 60.8773 716.23 72.0133 709.83 79.608C703.515 87.2027 693.446 91 679.622 91H638.661V88.824ZM679.366 85.368C687.472 85.368 693.232 81.9973 696.646 75.256C700.059 68.4293 701.766 58.744 701.766 46.2C701.766 33.7413 700.059 24.1413 696.646 17.4C693.232 10.6587 687.558 7.28799 679.622 7.28799H665.926V85.368H679.366ZM798.431 86.392C800.735 86.8187 803.721 87.544 807.391 88.568V89.976L781.663 92.408V84.856C778.676 86.9893 775.22 88.7813 771.295 90.232C767.455 91.5973 763.487 92.28 759.391 92.28C751.881 92.28 745.951 90.744 741.599 87.672C737.247 84.5147 735.071 80.12 735.071 74.488V32.248C731.316 31.48 728.372 30.6693 726.239 29.816V28.536L751.839 25.976V73.208C751.839 82.168 755.892 86.648 763.999 86.648C766.473 86.648 769.375 85.9653 772.703 84.6C776.031 83.2347 779.017 81.4 781.663 79.096V32.248C778.079 31.48 775.177 30.6693 772.959 29.816V28.536L798.431 25.976V86.392ZM878.427 60.024H829.915C830.085 67.704 832.005 74.104 835.675 79.224C839.429 84.344 844.891 86.904 852.059 86.904C855.557 86.904 859.269 86.3067 863.195 85.112C867.205 83.9173 870.704 82.2533 873.691 80.12L875.354 84.216C872.624 86.52 868.827 88.44 863.963 89.976C859.184 91.512 853.979 92.28 848.347 92.28C841.093 92.28 834.779 90.9147 829.403 88.184C824.112 85.4533 820.016 81.6133 817.115 76.664C814.299 71.6293 812.891 65.8267 812.891 59.256C812.891 48.6747 815.92 40.5253 821.979 34.808C828.123 29.0053 836.656 26.104 847.579 26.104C854.491 26.104 860.251 27.512 864.859 30.328C869.467 33.0587 872.88 36.728 875.099 41.336C877.317 45.8587 878.427 50.936 878.427 56.568V60.024ZM863.707 54.392C863.707 50.9787 863.195 47.5653 862.171 44.152C861.147 40.6533 859.44 37.752 857.051 35.448C854.661 33.0587 851.547 31.864 847.707 31.864C842.416 31.864 838.32 33.9973 835.419 38.264C832.517 42.4453 830.768 47.8213 830.171 54.392H863.707ZM885.516 89.08C887.308 88.4827 890.678 87.5867 895.628 86.392V7.032C892.129 6.264 889.185 5.45333 886.796 4.6V3.31999L912.524 0.759995V86.52C916.278 87.1173 919.649 87.9707 922.636 89.08V91H885.516V89.08ZM951.023 92.28C936.431 92.28 929.135 86.0507 929.135 73.592C929.135 66.8507 931.524 61.9867 936.303 59C941.081 56.0133 947.396 54.52 955.247 54.52H972.399V45.176C972.399 40.568 971.033 37.1973 968.303 35.064C965.657 32.9307 961.945 31.864 957.167 31.864C953.753 31.864 950.169 32.376 946.415 33.4C942.745 34.424 939.375 35.704 936.303 37.24L935.279 32.376C939.033 30.4133 943.257 28.8773 947.951 27.768C952.644 26.6587 957.465 26.104 962.415 26.104C970.692 26.104 977.22 27.768 981.999 31.096C986.863 34.424 989.295 38.8613 989.295 44.408V85.496C992.537 86.1787 995.439 86.904 997.999 87.672V89.08L972.399 91.512V82.936C969.497 86.0933 966.169 88.44 962.415 89.976C958.745 91.512 954.948 92.28 951.023 92.28ZM957.423 86.264C960.153 86.264 962.969 85.368 965.871 83.576C968.772 81.784 970.948 79.608 972.399 77.048V60.152H959.215C954.777 60.152 951.407 61.3467 949.103 63.736C946.884 66.04 945.775 69.2827 945.775 73.464C945.775 77.816 946.799 81.0587 948.847 83.192C950.98 85.24 953.839 86.264 957.423 86.264ZM1044.63 75.128C1059.65 75.128 1067.16 81.016 1067.16 92.792C1067.16 99.5333 1064.3 104.269 1058.59 107C1052.87 109.816 1044.16 111.224 1032.47 111.224C1023.26 111.224 1016.13 109.816 1011.1 107C1006.06 104.184 1003.55 100.173 1003.55 94.968C1003.55 93.176 1003.93 91.4267 1004.7 89.72C1005.55 88.0133 1006.83 86.52 1008.54 85.24C1006.32 82.8507 1005.21 79.992 1005.21 76.664C1005.21 74.2747 1005.81 72.0133 1007 69.88C1008.28 67.6613 1010.2 65.7413 1012.76 64.12C1006.53 60.4507 1003.42 54.8613 1003.42 47.352C1003.42 40.6107 1006.02 35.4053 1011.23 31.736C1016.43 27.9813 1023.68 26.104 1032.99 26.104C1041.09 26.104 1047.66 27.5547 1052.7 30.456C1053.72 29.2613 1054.53 28.0667 1055.13 26.872C1055.81 25.592 1056.15 24.568 1056.15 23.8H1067.93C1067.59 25.6773 1066.69 27.6827 1065.24 29.816C1063.79 31.9493 1061.7 33.9973 1058.97 35.96C1061.27 39.1173 1062.43 42.9147 1062.43 47.352C1062.43 54.0933 1059.82 59.2987 1054.62 62.968C1049.41 66.6373 1042.2 68.472 1032.99 68.472C1028.38 68.472 1024.2 68.0027 1020.44 67.064C1018.99 68.2587 1018.27 69.624 1018.27 71.16C1018.27 73.8053 1020.06 75.128 1023.64 75.128H1044.63ZM1032.99 31.864C1028.8 31.864 1025.6 33.3147 1023.39 36.216C1021.17 39.1173 1020.06 42.8293 1020.06 47.352C1020.06 51.8747 1021.17 55.5867 1023.39 58.488C1025.6 61.3893 1028.8 62.84 1032.99 62.84C1037.08 62.84 1040.2 61.3893 1042.33 58.488C1044.55 55.5867 1045.66 51.8747 1045.66 47.352C1045.66 42.8293 1044.55 39.1173 1042.33 36.216C1040.2 33.3147 1037.08 31.864 1032.99 31.864ZM1033.5 105.08C1038.87 105.08 1043.18 104.355 1046.43 102.904C1049.67 101.539 1051.29 99.4907 1051.29 96.76C1051.29 94.2 1050.35 92.3653 1048.47 91.256C1046.68 90.232 1043.99 89.72 1040.41 89.72H1019.8C1018.61 89.72 1017.75 89.6773 1017.24 89.592C1016.9 90.7013 1016.73 92.1093 1016.73 93.816C1016.73 97.4 1018.22 100.173 1021.21 102.136C1024.28 104.099 1028.38 105.08 1033.5 105.08Z" fill="white"/>
</svg>
